<svg width="2240" height="625" viewBox="0 0 2240 625" fill="none" xmlns="http://www.w3.org/2000/svg">
<path d="M1001.11 177V236.523H883.054V482H808.785V236.523H728V177H1001.11ZM1075.38 236.523V298.218H1174.84V355.568H1075.38V422.477H1187.87V482H1001.11V177H1187.87V236.523H1075.38ZM1412.86 482L1310.36 347.313V482H1236.09V177H1310.36V310.818L1411.99 177H1499.29L1381.15 326.459L1503.63 482H1412.86ZM1803 177V482H1728.73V356.437H1613.2V482H1538.93V177H1613.2V296.48H1728.73V177H1803Z" fill="#EAB308"/>
<path d="M2000.04 482H1925.96L1802.07 293.873V482H1728V177H1802.07L1925.96 365.996V177H2000.04V482ZM2127.81 236.523V298.218H2227V355.568H2127.81V422.477H2240V482H2053.73V177H2240V236.523H2127.81Z" fill="#EAB308"/>
<rect x="241" y="191" width="271" height="271" fill="#EAB308"/>
<rect x="72" y="426" width="157" height="157" fill="#EAB308"/>
<rect x="516" y="160" width="114" height="114" fill="#EAB308"/>
<rect x="121" y="307" width="114" height="114" fill="#EAB308"/>
<rect x="80" y="386" width="36" height="36" fill="#EAB308"/>
<rect x="31" y="441" width="36" height="36" fill="#EAB308"/>
<rect x="158" y="225" width="78" height="78" fill="#EAB308"/>
<rect x="516" y="279" width="90" height="90" fill="#EAB308"/>
<rect x="80" y="65" width="157" height="157" fill="#EAB308"/>
<rect y="108" width="74" height="74" fill="#EAB308"/>
<rect x="25" y="56" width="49" height="49" fill="#EAB308"/>
<rect x="157" width="62" height="62" fill="#EAB308"/>
<rect x="241" y="47" width="42" height="42" fill="#EAB308"/>
<rect x="241" y="93" width="94" height="94" fill="#EAB308"/>
<rect x="418" y="92" width="94" height="94" fill="#EAB308"/>
<rect x="371" y="142" width="43" height="43" fill="#EAB308"/>
<rect x="82" y="30" width="32" height="32" fill="#EAB308"/>
<rect x="118" y="26" width="36" height="36" fill="#EAB308"/>
<rect x="236" y="468" width="157" height="157" fill="#EAB308"/>
<rect x="401" y="468" width="91" height="91" fill="#EAB308"/>
<rect x="401" y="564" width="57" height="57" fill="#EAB308"/>
<rect x="463" y="564" width="37" height="37" fill="#EAB308"/>
<rect x="191" y="588" width="37" height="37" fill="#EAB308"/>
</svg>
